PathFileType	4	(X/Y/Z)	C:/Users/opensim2020/Desktop/walking_exp_matlab/subject06_walking22_straight_01.trc																																																																																																																																		
DataRate	CameraRate	NumFrames	NumMarkers	Units	OrigDataRate	OrigDataStartFrame	OrigNumFrames																																																																																																																														
100	100	5	44	mm	100	812	141																																																																																																																														
Frame#	Time	LFHD			RFHD			LBHD			RBHD			C7			T10			CLAV			STRN			RBAK			LSHO			LUPA			LELB			LFRM			LWRA			LWRB			LFIN			RSHO			RUPA			RELB			RFRM			RWRA			RWRB			RFIN			LASI			RASI			LPSI			RPSI			LTHI			LKNE			LTIB			LANK			LHEE			LTOE			RTHI			RKNE			RTIB			RANK			RHEE			RTOE			*39			*40			*41			*42			*43		
		X1	Y1	Z1	X2	Y2	Z2	X3	Y3	Z3	X4	Y4	Z4	X5	Y5	Z5	X6	Y6	Z6	X7	Y7	Z7	X8	Y8	Z8	X9	Y9	Z9	X10	Y10	Z10	X11	Y11	Z11	X12	Y12	Z12	X13	Y13	Z13	X14	Y14	Z14	X15	Y15	Z15	X16	Y16	Z16	X17	Y17	Z17	X18	Y18	Z18	X19	Y19	Z19	X20	Y20	Z20	X21	Y21	Z21	X22	Y22	Z22	X23	Y23	Z23	X24	Y24	Z24	X25	Y25	Z25	X26	Y26	Z26	X27	Y27	Z27	X28	Y28	Z28	X29	Y29	Z29	X30	Y30	Z30	X31	Y31	Z31	X32	Y32	Z32	X33	Y33	Z33	X34	Y34	Z34	X35	Y35	Z35	X36	Y36	Z36	X37	Y37	Z37	X38	Y38	Z38	X39	Y39	Z39	X40	Y40	Z40	X41	Y41	Z41	X42	Y42	Z42	X43	Y43	Z43	X44	Y44	Z44
																																																																																																																																					
71	0.7	-114.23851	1655.26404	1391.25574	-101.35555	1645.45667	1522.17969	-250.84775	1613.10999	1406.11804	-236.18298	1608.49683	1534.97668	-259.12848	1454.62305	1461.15161	-315.9957	1128.56311	1460.94641	-155.93439	1370.03699	1451.7019	-128.71767	1192.88354	1439.88916	-337.50165	1287.79968	1544.78271	-220.66443	1409.49255	1295.05566	-261.53256	1213.30139	1217.04553	-286.5838	1104.59961	1202.65601	-287.36966	955.97742	1170.62109	-240.86205	831.04041	1199.80457	-304.70123	838.18683	1167.56738	-278.80615	750.94672	1160.27942	-186.09712	1401.70642	1614.3717	-218.1537	1209.3092	1712.64209	-203.97336	1089.51538	1730.58594	-158.89478	978.89227	1742.75513	-68.85133	864.71454	1696.20142	-113.37694	848.82617	1743.20959	-55.06625	788.14063	1735.08276	-146.61351	961.51129	1346.1283	-148.62454	963.95142	1564.40515	-304.57349	990.87323	1371.63196	-298.84525	997.96796	1539.48828	-129.82301	660.12756	1287.48743	-63.70886	512.30011	1317.31689	-155.12257	278.95023	1329.63538	-204.82283	114.84564	1370.87537	-245.1087	109.29911	1419.93115	-76.64173	54.17904	1361.39282	-232.36711	631.20587	1605.89026	-246.00401	506.23074	1579.9259	-345.92459	255.24283	1567.44556	-394.32483	76.95741	1511.06238	-438.28717	57.36287	1467.16675	-243.64687	37.16445	1504.85681	-204.03909	1702.8645	1459.9585	NaN	NaN	NaN	NaN	NaN	NaN	NaN	NaN	NaN	NaN	NaN	NaN
72	0.71	-101.15438	1652.94165	1390.72534	-87.97868	1643.32581	1521.65295	-237.7058	1610.7771	1405.99365	-223.16429	1606.41748	1534.64734	-246.12384	1452.53442	1461.18054	-303.16751	1126.53271	1461.04297	-142.94809	1367.76221	1451.70813	-115.96005	1190.58215	1440.31934	-324.53119	1285.96094	1545.04919	-207.71187	1407.09375	1295.03442	-251.20915	1211.34192	1217.79883	-278.74799	1103.25977	1203.0592	-281.90204	954.70911	1170.9198	-237.29269	828.92804	1199.67725	-301.24503	837.35181	1167.77356	-276.96359	749.59479	1160.25647	-173.15771	1399.81982	1614.3501	-203.89302	1207.5282	1713.09509	-188.44363	1088.03027	1731.29639	-141.02887	978.54633	1742.78308	-48.38802	867.05072	1695.03162	-92.25143	849.75598	1742.35706	-32.35497	790.72424	1733.72754	-132.92604	959.54126	1346.91187	-136.17897	961.8822	1565.34375	-291.11465	988.55988	1371.47742	-286.40741	995.86707	1539.3103	-113.98222	659.18091	1287.66553	-45.92358	512.13861	1317.45459	-125.25106	273.30545	1330.09473	-164.62527	106.51026	1371.84399	-203.25342	98.3312	1421.90186	-33.24699	52.7531	1362.27429	-223.35291	629.73712	1606.04004	-238.85442	504.74002	1580.42261	-342.96304	255.11514	1567.20337	-393.93964	77.83138	1510.61182	-437.63904	58.55936	1466.31006	-243.46144	37.31123	1505.32336	-190.83121	1700.64502	1459.52893	NaN	NaN	NaN	NaN	NaN	NaN	NaN	NaN	NaN	NaN	NaN	NaN
73	0.72	-87.93343	1650.44873	1390.17041	-74.56539	1641.01221	1521.11475	-224.46614	1608.32764	1405.75903	-209.87387	1604.14551	1534.37451	-233.07628	1450.32666	1461.16968	-290.22424	1124.29663	1461.0531	-129.88364	1365.31836	1451.67883	-103.01466	1188.18054	1440.71216	-311.61029	1283.90491	1545.26575	-194.59584	1404.58545	1294.948	-241.2428	1209.60083	1217.79858	-270.31146	1101.84082	1203.63306	-276.30624	953.4679	1171.31653	-233.31218	826.90948	1199.62463	-297.37582	836.45123	1168.26538	-274.30658	748.17859	1160.57422	-160.13065	1397.7865	1614.25659	-189.76556	1205.62585	1713.41663	-173.13177	1086.39063	1731.84326	-123.45863	978.11493	1742.60706	-28.19639	869.32709	1693.90857	-71.37782	850.69348	1741.41882	-10.09775	793.19122	1732.1731	-119.18623	957.29883	1347.59766	-123.52907	959.67139	1566.0708	-277.31833	986.03137	1371.2605	-273.44116	993.47742	1539.04089	-99.10542	657.41876	1287.25378	-29.32494	511.42917	1317.20837	-95.27679	267.6926	1330.51416	-123.93526	98.82069	1372.95178	-162.13371	88.99935	1423.12341	10.18954	51.94155	1363.64685	-214.13025	628.1076	1606.14294	-231.47565	503.14011	1580.84021	-340.21085	255.31456	1566.95618	-393.41763	78.68659	1510.07703	-437.30823	60.10315	1465.61829	-243.66399	37.14206	1505.79236	-177.53059	1698.25195	1459.13232	NaN	NaN	NaN	NaN	NaN	NaN	NaN	NaN	NaN	NaN	NaN	NaN
74	0.73	-74.59805	1647.78748	1389.67664	-61.05836	1638.55737	1520.6062	-211.18137	1605.68689	1405.50745	-196.22029	1601.66968	1534.18042	-219.51961	1447.79736	1460.90894	-276.95541	1121.7699	1460.85071	-116.67717	1362.74939	1451.60254	-89.96297	1185.61023	1441.01257	-298.52496	1281.59558	1545.30872	-181.51317	1401.95764	1294.88245	-230.98454	1207.67346	1218.10229	-261.55042	1100.35278	1204.16345	-270.15826	952.11694	1171.81689	-228.82446	824.9599	1199.44946	-293.25699	835.46606	1168.92493	-271.77921	747.02106	1160.44739	-147.07849	1395.66296	1614.13892	-175.75349	1203.55664	1713.59729	-158.00046	1084.69568	1732.27478	-105.80712	977.61981	1742.66956	-8.37594	871.4751	1692.82727	-50.76656	851.56189	1740.62988	11.83399	795.73303	1730.84875	-105.22007	954.91309	1348.3042	-110.85582	957.35138	1566.96729	-263.37521	983.48486	1370.95972	-260.61993	991.00671	1538.77808	-84.77581	655.23694	1286.9397	-13.77327	510.14032	1316.8916	-65.51234	262.17822	1331.05542	-83.16903	91.99142	1374.31519	-120.53452	80.69418	1424.60596	53.86562	52.11221	1365.50183	-204.91739	626.35565	1606.21484	-223.72327	501.49484	1580.9054	-337.17825	255.47888	1566.67712	-392.8674	79.63548	1509.51196	-436.48984	61.41479	1464.61841	-243.46375	36.94984	1505.98938	-164.05807	1695.72192	1458.69238	NaN	NaN	NaN	NaN	NaN	NaN	NaN	NaN	NaN	NaN	NaN	NaN
75	0.74	-61.24599	1645.02649	1389.14648	-47.48812	1635.94556	1520.07251	-197.705	1603.02185	1405.17676	-182.5347	1599.08923	1533.91541	-206.29601	1445.17285	1460.7406	-263.77383	1119.09485	1460.57458	-103.39304	1360.06299	1451.48962	-76.80778	1182.94641	1441.26294	-285.37433	1279.13037	1545.22644	-168.39885	1399.24072	1294.75525	-220.27345	1205.62146	1218.62671	-252.81667	1098.81555	1204.71338	-263.82608	950.77765	1172.38367	-224.86481	822.78229	1199.17957	-288.60663	834.38788	1169.65698	-268.26273	745.68292	1160.96533	-133.94917	1393.38782	1613.95654	-161.8329	1201.47046	1713.6864	-142.70898	1082.91162	1732.70544	-88.4691	977.03296	1742.5271	11.16135	873.47504	1691.83594	-30.54663	852.32593	1739.67969	33.25893	797.97955	1729.36047	-91.06212	952.3161	1348.94531	-97.98398	954.84442	1567.61597	-249.26941	980.88892	1370.5752	-247.7178	988.52966	1538.45715	-70.84344	652.6969	1286.48633	0.89025	508.28525	1316.34045	-35.94807	256.94748	1331.57556	-42.48134	86.17781	1375.521	-78.73671	73.68108	1426.4137	97.39568	53.23166	1367.89648	-195.15947	624.47784	1606.66968	-215.81729	499.86316	1581.51501	-333.76151	255.70885	1566.50391	-392.11118	80.66546	1508.85095	-435.68582	63.01465	1463.80627	-243.21004	36.79811	1506.17322	-150.59676	1693.04956	1458.22766	NaN	NaN	NaN	NaN	NaN	NaN	NaN	NaN	NaN	NaN	NaN	NaN
